#N canvas 2 64 1661 1040 12;
#X floatatom 255 132 3 0 0 0 - - -;
#X floatatom 282 132 3 0 0 0 - - -;
#X floatatom 309 132 3 0 0 0 - - -;
#X floatatom 336 132 3 0 0 0 - - -;
#X text 212 131 from;
#X floatatom 364 132 5 0 0 0 - - -;
#X obj 255 106 unpack 0 0 0 0 0;
#N canvas 3 64 450 300 get.info 0;
#X text 29 31 NOTE outlet #2 is for compatibility with mrpeach's net
objects. you can get all info (and more) via outlet #3 as well.;
#X obj 40 95 inlet outlet#3;
#X obj 40 119 route address;
#X floatatom 190 177 3 0 0 0 - - -;
#X floatatom 217 177 3 0 0 0 - - -;
#X floatatom 244 177 3 0 0 0 - - -;
#X floatatom 271 177 3 0 0 0 - - -;
#X text 147 176 from;
#X floatatom 299 177 5 0 0 0 - - -;
#X obj 190 151 unpack 0 0 0 0 0;
#X obj 35 213 route port;
#X floatatom 197 245 5 0 0 0 - - -;
#X text 236 244 listening port;
#X connect 1 0 2 0;
#X connect 2 0 9 0;
#X connect 2 1 10 0;
#X connect 9 0 3 0;
#X connect 9 1 4 0;
#X connect 9 2 5 0;
#X connect 9 3 6 0;
#X connect 9 4 8 0;
#X connect 10 0 11 0;
#X restore 293 77 pd get.info;
#X obj 151 112 asciiToPd;
#X text 14 10 BLOW - SUCK;
#X obj 151 72 udpreceive 3333;
#X msg 706 89 bang;
#X text 741 90 <-- bang to reset;
#X obj 717 114 tgl 15 1 empty empty empty 0 -6 0 8 -262144 -1 -1 1
1;
#X text 737 114 <-- stop/start tracking;
#X obj 576 141 mapping/track_max;
#X msg 712 160 bang;
#X text 747 161 <-- bang to reset;
#X obj 723 185 tgl 15 1 empty empty empty 0 -6 0 8 -262144 -1 -1 1
1;
#X text 743 185 <-- stop/start tracking;
#X obj 582 212 mapping/track_min;
#X obj 580 264 nbx 15 48 -1e+37 1e+37 0 0 empty empty empty 0 -8 0
48 -262144 -1 -1 0 256;
#X obj 578 23 nbx 15 48 -1e+37 1e+37 0 0 empty empty empty 0 -8 0 48
-262144 -1 -1 0 256;
#X text 1250 28 max 65.54 (both pos and negative) - don't use;
#X text 1251 99 normal 35.63 <> 36.49;
#X text 1253 142 blow -60 max | -20 ok | 5 easy;
#X text 1249 65 suck 60 max | 52 ok | 48 easy;
#X obj 158 244 moses 37;
#X obj 80 152 spigot;
#X obj 115 129 tgl 15 0 empty empty empty 17 7 0 10 -262144 -1 -1 0
1;
#X obj 78 179 print kpa;
#X obj 150 169 route 65.54;
#X obj 154 530 vsl 50 300 0 127 0 0 empty empty empty 0 -9 0 10 -1
-262144 -1 0 1;
#X obj 153 497 clip 0 127;
#X obj 153 469 int;
#X obj 152 364 mapping/iir 5;
#X obj 152 387 mapping/median_7;
#X obj 153 410 mapping/smooth;
#X obj 158 308 demux . . .;
#X obj 229 285 tgl 15 0 empty empty empty 17 7 0 10 -262144 -1 -1 1
1;
#X obj 28 527 vsl 50 300 0 127 0 0 empty empty empty 0 -9 0 10 -1 -262144
-1 0 1;
#X obj 27 494 clip 0 127;
#X obj 27 466 int;
#X obj 512 551 vsl 50 300 0 127 0 0 empty empty empty 0 -9 0 10 -1
-262144 -1 0 1;
#X obj 511 518 clip 0 127;
#X obj 511 490 int;
#X obj 538 359 mapping/iir 5;
#X obj 538 382 mapping/median_7;
#X obj 539 405 mapping/smooth;
#X obj 390 323 demux . . .;
#X obj 462 298 tgl 15 0 empty empty empty 17 7 0 10 -262144 -1 -1 1
1;
#X obj 386 548 vsl 50 300 0 127 0 0 empty empty empty 0 -9 0 10 -1
-262144 -1 0 1;
#X obj 385 515 clip 0 127;
#X obj 385 487 int;
#X obj 386 426 phiscale 37 48 0 127;
#X obj 489 138 spigot;
#X obj 520 110 tgl 15 0 empty empty empty 17 7 0 10 -262144 -1 -1 0
1;
#X obj 458 256 loadbang;
#X obj 538 432 phiscale 37 42 0 127;
#X obj 153 439 phiscale 35 5 0 127;
#X obj 27 438 phiscale 35 5 0 127;
#X text 80 918 BLOW;
#X text 460 908 SUCK;
#X connect 6 0 0 0;
#X connect 6 1 1 0;
#X connect 6 2 2 0;
#X connect 6 3 3 0;
#X connect 6 4 5 0;
#X connect 8 0 28 0;
#X connect 8 0 31 0;
#X connect 8 0 55 0;
#X connect 10 0 8 0;
#X connect 10 1 6 0;
#X connect 11 0 15 2;
#X connect 13 0 15 2;
#X connect 15 0 22 0;
#X connect 16 0 20 2;
#X connect 18 0 20 2;
#X connect 20 0 21 0;
#X connect 27 0 38 0;
#X connect 27 1 49 0;
#X connect 28 0 30 0;
#X connect 29 0 28 1;
#X connect 31 1 27 0;
#X connect 33 0 32 0;
#X connect 34 0 33 0;
#X connect 35 0 36 0;
#X connect 36 0 37 0;
#X connect 37 0 59 0;
#X connect 38 0 60 0;
#X connect 38 1 35 0;
#X connect 39 0 38 1;
#X connect 41 0 40 0;
#X connect 42 0 41 0;
#X connect 44 0 43 0;
#X connect 45 0 44 0;
#X connect 46 0 47 0;
#X connect 47 0 48 0;
#X connect 48 0 58 0;
#X connect 49 0 54 0;
#X connect 49 1 46 0;
#X connect 50 0 49 1;
#X connect 52 0 51 0;
#X connect 53 0 52 0;
#X connect 54 0 53 0;
#X connect 55 0 15 0;
#X connect 55 0 20 0;
#X connect 56 0 55 1;
#X connect 57 0 39 0;
#X connect 57 0 50 0;
#X connect 58 0 45 0;
#X connect 59 0 34 0;
#X connect 60 0 42 0;
